<?xml version="1.0" encoding="utf-8"?>
<!-- Svg Vector Icons : http://www.onlinewebfonts.com/icon -->
<!DOCTYPE svg PUBLIC "-//W3C//DTD SVG 1.1//EN" "http://www.w3.org/Graphics/SVG/1.1/DTD/svg11.dtd">
<svg version="1.1" xmlns="http://www.w3.org/2000/svg" xmlns:xlink="http://www.w3.org/1999/xlink" x="0px" y="0px" viewBox="0 0 256 256" enable-background="new 0 0 256 256" xml:space="preserve">
<metadata> Svg Vector Icons : http://www.onlinewebfonts.com/icon </metadata>
<g><g><g><path fill="#fff" d="M10,124.3v114.3h68.3h68.2l4.3,1.9c9,3.9,16.6,5.5,26.7,5.5c18.7,0.1,34.9-6.7,48.3-20.2c13.4-13.4,20.2-29.6,20.2-48.1c0-14-3.8-26.2-11.8-38.1c-3.3-4.9-11.3-13.4-15.9-16.7l-2.9-2.1l0.1-55.4l0.1-55.3H112.9H10V124.3z M208.1,67c0,27.1-0.1,49.2-0.4,49.2c-0.2-0.1-1.9-0.8-3.8-1.5l-3.4-1.4v-2.1v-2h-26.7h-26.7v3.7l0,3.7l-3.8,2.2l-3.8,2.2V115v-5.9h-26.7H86.2v26.7v26.7h12.4c11.6,0,12.4,0,12.1,0.8c-0.1,0.5-0.5,2.2-0.8,3.8l-0.6,3H97.8H86.2v26.7v26.7h20.4l20.3,0l4,3.8l4,3.8H76.3H17.6V124.3V17.6h95.3h95.3L208.1,67L208.1,67z M131.9,121.8l0,5.1l-3.8,4c-3.7,3.9-3.8,3.9-3.8,2.5V132h-11.4h-11.4v3.8v3.8h9.7h9.7l-2.3,3.9c-1.2,2.1-3,5.6-3.9,7.6l-1.5,3.8h-9.7h-9.7v-19.1v-19.1h19.1h19.1L131.9,121.8L131.9,121.8z M190.3,117.9c11.7,2.6,21.3,7.7,29.5,15.5c9.2,8.8,15,19.1,17.8,32c1.2,5.6,1.2,19,0,24.6c-2.6,11.9-7.6,21.5-15.6,29.8c-8.8,9.1-19.2,15-32,17.8c-5.6,1.2-19,1.2-24.6,0c-12.9-2.8-23.2-8.6-32-17.8c-8-8.3-13-17.9-15.6-29.8c-1.2-5.6-1.2-19,0-24.6c4.1-19,15.7-34,32.5-42.4c4.6-2.3,11.6-4.5,16.4-5.3c2-0.3,3.9-0.6,4.3-0.7C172.8,116.5,187.2,117.2,190.3,117.9z M109.2,180.2c0,1.4,0,3.1,0,3.9c0,0.8,0.2,2.5,0.6,3.8c0.4,1.4,0.8,3,1,3.8l0.3,1.3h-4.8h-4.8v3.8v3.8h5.9h5.9l0.5,1.3c0.2,0.8,0.6,1.7,0.8,2.1c0.3,0.7,0.1,0.8-1,0.6c-4.3-0.8-6.1,5.2-2,6.9c1.7,0.7,4,0,4.5-1.5c0.2-0.5,0.4-0.9,0.6-0.9c0.2,0,1.2,1.5,2.3,3.3l2,3.3h-13.5H93.8v-19.1v-19.1h7.6h7.6L109.2,180.2z"/><path fill="#fff" d="M25.2,63.4v38.1h87.6h87.6V63.4V25.3h-87.6H25.2V63.4z M192.9,63.4v30.5h-80h-80V63.4V32.9h80h80L192.9,63.4L192.9,63.4z"/><path fill="#fff" d="M124.3,44.3v3.8h-3.8h-3.8v5.7v5.7h3.8h3.8v3.8v3.8h-3.8h-3.8v5.7v5.7h3.8h3.8v3.8v3.8h7.6h7.6v-3.8v-3.8h3.8h3.8v-5.7v-5.7h-3.8h-3.8v-3.8v-3.8h3.8h3.8v-5.7v-5.7h-3.8h-3.8v-3.8v-3.8h-7.6h-7.6V44.3z M139.5,53.8v5.7h-7.6h-7.6v-5.7v-5.7h7.6h7.6V53.8z M139.5,72.9v5.7h-7.6h-7.6v-5.7v-5.7h7.6h7.6V72.9z"/><path fill="#fff" d="M162.4,44.3v3.8h-3.8h-3.8v5.7v5.7h3.8h3.8v3.8v3.8h-3.8h-3.8v5.7v5.7h3.8h3.8v3.8v3.8h7.6h7.6v-3.8v-3.8h3.8h3.8v-5.7v-5.7h-3.8h-3.8v-3.8v-3.8h3.8h3.8v-5.7v-5.7h-3.8h-3.8v-3.8v-3.8H170h-7.6V44.3z M177.7,53.8v5.7H170h-7.6v-5.7v-5.7h7.6h7.6L177.7,53.8L177.7,53.8z M177.7,72.9v5.7H170h-7.6v-5.7v-5.7h7.6h7.6L177.7,72.9L177.7,72.9z"/><path fill="#fff" d="M25.2,135.8v26.7h26.7h26.7v-26.7v-26.7H51.9H25.2V135.8z M71,135.8v19.1H51.9H32.9v-19.1v-19.1h19.1H71V135.8z"/><path fill="#fff" d="M48.1,128.1v3.8h-3.8h-3.8v3.8v3.8h3.8h3.8v3.8v3.8h3.8h3.8v-3.8v-3.8h3.8h3.8v-3.8V132h-3.8h-3.8v-3.8v-3.8h-3.8h-3.8V128.1z"/><path fill="#fff" d="M25.2,196.7v26.7h26.7h26.7v-26.7v-26.7H51.9H25.2V196.7z M71,196.7v19.1H51.9H32.9v-19.1v-19.1h19.1H71V196.7z"/><path fill="#fff" d="M40.5,185.5l-2.6,2.6l4.2,4.3l4.3,4.3l-4.3,4.3l-4.3,4.3l2.8,2.7l2.7,2.8l4.3-4.3l4.3-4.3l4.3,4.3l4.3,4.3l2.7-2.8l2.8-2.7l-4.3-4.3l-4.3-4.3l4.3-4.3l4.3-4.3l-2.8-2.7l-2.7-2.8l-4.3,4.3l-4.3,4.3l-4.2-4.2c-2.3-2.3-4.3-4.1-4.4-4.1C43.2,182.9,41.9,184.1,40.5,185.5z"/><path fill="#fff" d="M173.8,133.9v5.7h-1.7c-9.7,0-19,7.9-20.8,17.8c-1.9,10.2,6,21.4,16.6,23.6c1.4,0.3,5.9,0.5,10,0.5c9.4,0,11.6,0.6,14.8,3.8c5.1,5.1,5.1,14,0,19.1c-3.2,3.3-5.3,3.8-15.2,3.8s-12-0.5-15.2-3.8c-2.9-2.8-3.8-5.7-3.8-11.3v-4h-3.8H151v3.6c0,4.7,0.7,8,2.5,11.4c3.5,6.7,11.4,11.7,18.7,11.7h1.7v5.7v5.7h3.8h3.8v-5.7v-5.7h1.7c9.6,0,19-8,20.8-17.8c1.9-10.2-6-21.4-16.6-23.6c-1.4-0.3-5.9-0.5-10-0.5c-9.4,0-11.6-0.6-14.8-3.8c-5.1-5.1-5.1-14,0-19.1c3.2-3.3,5.3-3.8,15.2-3.8s12,0.5,15.2,3.8c2.9,2.8,3.8,5.7,3.8,11.3v4h3.8h3.8v-3.6c0-4.7-0.7-8-2.5-11.4c-3.5-6.6-11.3-11.6-18.3-11.7h-2v-5.7v-5.7h-3.8h-3.8L173.8,133.9L173.8,133.9z"/><path fill="#fff" d="M132.2,150.3c-3,3,0.2,7.6,4.1,6c2.8-1.1,2.9-5.4,0.1-6.6C134.6,148.8,133.4,149,132.2,150.3z"/><path fill="#fff" d="M218.8,149.7c-2.6,1.3-2.4,5.4,0.4,6.6c3.8,1.6,7-3,4-6C221.9,149.1,220.5,148.8,218.8,149.7z"/><path fill="#fff" d="M126.4,174.4c-2.6,1.3-2.4,5.4,0.4,6.6c4.2,1.8,7.2-4.7,3-6.6C128.3,173.8,127.7,173.8,126.4,174.4z"/><path fill="#fff" d="M225.4,174.4c-2.6,1.2-2.5,5.2,0.1,6.4c3.1,1.5,6.3-1.4,5-4.7C229.7,174.2,227.6,173.4,225.4,174.4z"/><path fill="#fff" d="M132.2,199.8c-3,3,0.2,7.6,4.1,6c2.8-1.1,2.9-5.4,0.1-6.6C134.6,198.3,133.4,198.5,132.2,199.8z"/><path fill="#fff" d="M218.8,199.2c-2.6,1.3-2.4,5.4,0.3,6.6c2.6,1,5.3-0.6,5.3-3.4C224.3,199.8,221.2,198,218.8,199.2z"/></g></g></g>
</svg>