<?xml version="1.0" encoding="utf-8"?>
<!-- Svg Vector Icons : http://www.onlinewebfonts.com/icon -->
<!DOCTYPE svg PUBLIC "-//W3C//DTD SVG 1.1//EN" "http://www.w3.org/Graphics/SVG/1.1/DTD/svg11.dtd">
<svg version="1.1" xmlns="http://www.w3.org/2000/svg" xmlns:xlink="http://www.w3.org/1999/xlink" x="0px" y="0px" viewBox="0 0 256 256" enable-background="new 0 0 256 256" xml:space="preserve">
<metadata> Svg Vector Icons : http://www.onlinewebfonts.com/icon </metadata>
<g><g><g><path fill="#fff" d="M177.8,6.8c-0.7,0.1-2.7,0.4-4.5,0.7c-7.6,1.2-16.9,5-24.1,9.8c-4.6,3.1-11.9,10.1-15.1,14.7c-5.5,7.7-9.5,17-11.1,26.2c-1.1,6.7-0.7,19,0.9,25.2c6.3,24.1,25,41.6,49.2,46.2c5.9,1.1,15.8,1.1,21.8,0c22.3-4,40.8-19.9,47.9-41c2.2-6.5,2.9-10.7,3.2-18.1c0.3-8-0.5-13.6-2.8-20.7c-3.1-9.7-8.2-17.9-15.6-25.3c-8.7-8.6-19.3-14.3-31.6-16.8C192.5,7,180.4,6.4,177.8,6.8z M193.9,22c14.1,3,26.3,12.4,32.7,25.2c4.9,10,6.4,20.8,4.1,31.4c-3.9,18.5-18.4,32.8-37.2,36.7c-6.4,1.3-16,1-22.1-0.8c-8.7-2.6-15-6.4-21.3-12.8c-9.4-9.6-13.9-21.6-13.4-35.1c0.5-11.9,4.7-21.8,12.9-30.4C161.2,23.8,177.7,18.6,193.9,22z"/><path fill="#fff" d="M181.7,36.2c-0.9,0.8-1.1,1.5-1.2,4.2l-0.1,3.3l-2.2,0.7c-3.3,1-6.6,3.8-8.1,6.7c-1.1,2.1-1.3,3.1-1.3,5.9c0,2.2,0.3,4,0.9,5.3c1.3,2.8,4.8,5.8,9.4,7.9c7.2,3.2,9.3,4.5,10.4,6.1c2.1,3.1,1,6.8-2.5,8.5c-2.9,1.4-7.6,1.1-12.2-0.7c-2.9-1.2-3.3-1.2-4.3-0.6c-0.6,0.4-1.4,1.7-1.8,2.9c-1.4,3.7-0.7,4.3,7,6.2l4.3,1l0.1,3.3c0.1,1.8,0.4,3.5,0.7,3.8c0.3,0.4,1.5,0.6,3,0.6c3.4,0,4-0.8,4-4.9c0-2.1,0.2-3.2,0.6-3.3c3.6-1,5.6-2.1,7.7-4.3c3.1-3.1,4.2-6.1,3.9-10.9c-0.5-6.9-3.8-10.3-14.3-14.8c-2.3-0.9-4.9-2.5-5.8-3.3c-1.4-1.3-1.6-1.8-1.6-3.7c0-1.7,0.2-2.3,1.4-3.5c1.3-1.2,1.8-1.4,5-1.6c2.8-0.1,4.3,0,6.8,0.9c1.8,0.6,3.6,0.9,4,0.8c0.8-0.3,2.6-4.1,2.6-5.5c0-1.3-1-1.8-5.6-3l-4.3-1v-2.9c0-3.6-0.6-4.5-3.4-4.8C183.3,35.4,182.5,35.6,181.7,36.2z"/><path fill="#fff" d="M96.2,54.5c-35.6,4-66.5,28-79.8,61.9c-3.8,9.8-6,20.3-6.4,31.5c-1,27.8,9.1,53.3,28.5,72.7c30.1,30,75,37.2,112.9,18.1c26-13.1,45.3-37.8,51.4-66c1.9-8.8,3.1-24,2.1-27.6c-0.4-1.3-0.7-1.3-5.6,0.1c-2.2,0.6-5.6,1.3-7.6,1.5c-2.1,0.2-3.9,0.6-4.3,1c-0.4,0.5-0.7,1.8-0.7,4.1c0,7.3-1.5,16.5-3.9,24c-6.2,19.6-20.9,36.9-39.3,46.2c-22.8,11.5-48.8,11.7-71.3,0.5c-22.1-11.1-37.2-30.8-42.5-55.7c-0.9-4.3-1.1-6.4-1.1-15.2c0-11.4,0.6-15.6,3.8-25.1C42.4,96.7,70,75,101.3,72.7l4.3-0.3l0.3-4.6c0.2-2.5,0.6-6.2,1-8.1c1.2-6,1.3-5.7-3.2-5.6C101.5,54.1,98.2,54.3,96.2,54.5z"/><path fill="#fff" d="M104.4,107.2c-0.8,0.8-0.8,47.4,0,48.2c0.9,0.9,46,0.8,46.8-0.1c0.4-0.4,0.5-2.4,0.4-5.5l-0.1-4.9l-17.5-0.2c-9.6-0.1-17.8-0.4-18.1-0.6c-0.5-0.3-0.6-4.5-0.6-18.1c0-15.5-0.1-17.8-0.8-18.4C113.5,106.4,105.3,106.3,104.4,107.2z"/></g></g></g>
</svg>