<?xml version="1.0" encoding="utf-8"?>
<!-- Svg Vector Icons : http://www.onlinewebfonts.com/icon -->
<!DOCTYPE svg PUBLIC "-//W3C//DTD SVG 1.1//EN" "http://www.w3.org/Graphics/SVG/1.1/DTD/svg11.dtd">
<svg version="1.1" xmlns="http://www.w3.org/2000/svg" xmlns:xlink="http://www.w3.org/1999/xlink" x="0px" y="0px" viewBox="0 0 256 256" enable-background="new 0 0 256 256" xml:space="preserve">
<metadata> Svg Vector Icons : http://www.onlinewebfonts.com/icon </metadata>
<g><g><g><path fill="#fff" d="M113,22.9L92.5,37l-0.1-6.5l-0.1-6.5h-10h-10l-0.1,13.5l-0.1,13.5l-5.6,3.9c-3.1,2.1-7.8,5.4-10.7,7.3l-5.1,3.5l4.2,6.1c2.2,3.3,4.4,6.4,4.7,6.7c0.4,0.5,1.3,0.1,4-1.8c1.9-1.3,3.5-2.4,3.7-2.4c0.1,0,0.3,16.8,0.3,37.3v37.3h8.1h8.1V106V63l24.9-17.1c13.7-9.4,25.2-17,25.5-16.9c0.3,0.1,11.2,7.7,24.2,16.9l23.7,16.6l0.2,53l0.2,53l3.8-3.3c2.1-1.8,5.7-4.9,8-7l4.2-3.8v-40.6c0-22.3,0.1-40.6,0.3-40.6c0.1,0,2.2,1.2,4.4,2.8c2.2,1.5,4.4,3,4.6,3.1c0.6,0.3,9.5-12.3,9.2-13.1c-0.1-0.3-79.9-55.1-83-57.1C133.8,9,124.4,15.2,113,22.9z"/><path fill="#fff" d="M126.2,73.2v4.7l-2.2,0.6c-3.1,0.9-7.4,3.9-9.2,6.5c-2.2,3.1-3,5.7-3,9.9c0,8,4.1,12.9,14.8,17.2c8.7,3.5,10.7,5.1,10.7,8.3c0,2.3-0.9,3.5-3.1,4.6c-4,1.8-10.6,0.9-16.7-2.2c-2.2-1.1-3.3-1.5-3.4-1.1c-0.7,1.9-3.1,10.5-3.1,11c0,1.5,9.4,5.1,13.2,5.1h1.6v4.5v4.5h5.5h5.5v-4.7v-4.7l2.5-0.8c9.6-3.1,15-12.3,12.6-21.6c-1.8-7.1-4.7-9.5-19.4-16c-3.9-1.7-5.7-3.5-5.7-5.5c0-4.8,7.5-6,16.2-2.6c2.2,0.8,4.1,1.4,4.2,1.3c0.1,0,0.9-2.7,1.8-5.8l1.7-5.7l-2.6-1.2c-1.4-0.6-4.3-1.5-6.4-2l-3.8-0.8v-4.2v-4.2h-5.7h-5.7V73.2z"/><path fill="#fff" d="M10,200.3v46.6h16.3h16.3v-4.8c0-2.6,0.1-4.8,0.2-4.8c0.1,0,1.3,0.7,2.8,1.6c3.1,1.9,9.1,4.3,14.2,5.7c3.6,1.1,4,1.1,42.4,1.1c42.2,0,44.8-0.1,58.6-3c29.1-5.9,59.1-22.6,77.7-43.1c6.8-7.6,8.7-12.1,7.3-17c-1.9-6.5-10.2-13.8-19-16.8c-8.6-2.9-16.7-2.5-24.1,1.1c-4.8,2.4-8.8,5.7-13.3,11.3c-5.5,6.8-9.4,10-15.4,13c-2.5,1.3-10.1,4-11.2,4c-0.2,0-0.2-0.7,0-1.5c0.7-2.5,0.5-10.2-0.3-13.4c-1.3-5.2-3.8-9.3-8-13.5c-4.4-4.4-8.3-6.6-14.9-8.5l-3.8-1.1H95.8c-39.7,0-39.7,0-43.4,1.1c-2.1,0.6-5,1.7-6.5,2.5c-1.6,0.8-3,1.4-3.1,1.4s-0.2-2-0.2-4.3v-4.3H26.3H10V200.3z M31.5,168.5v5.7H26h-5.5v-5.7v-5.7H26h5.5V168.5L31.5,168.5z M138.3,169.8c4.2,1.6,6.6,3.2,9,5.8c5,5.6,6.1,15.2,2.2,19l-1.4,1.3l-27.1,0.2c-20.8,0.2-27.4,0.4-28.2,0.9c-2.9,1.7-3.3,6.5-0.6,8.8l1.4,1.3h32.5c35.1,0,36.3,0,44.6-2.7c9.8-3.1,19.3-9.4,25.2-16.8c5.2-6.4,7.7-8.7,11.3-10.5c7.7-3.8,16.5-2.2,23.8,4.2c3.9,3.5,4.1,4,2.4,6.4c-2.2,3.3-10.1,11.2-16.2,16.1c-17.2,13.8-37.6,23.5-58.2,27.7c-13,2.7-12.9,2.7-55.9,2.7H63.3l-3.7-1.3c-4.4-1.5-8.3-3.4-12.3-6.1c-1.6-1.1-3.3-1.9-3.9-1.9c-0.8,0-0.9-1-0.9-24.8v-24.8l1.3-0.3c0.7-0.1,2.3-1.1,3.5-2c1.2-0.9,3.1-2,4.1-2.4c4.7-2,5.1-2,45.4-1.9l38.7,0.1L138.3,169.8z"/></g></g></g>
</svg>