<?xml version="1.0" encoding="utf-8"?>
<!-- Svg Vector Icons : http://www.onlinewebfonts.com/icon -->
<!DOCTYPE svg PUBLIC "-//W3C//DTD SVG 1.1//EN" "http://www.w3.org/Graphics/SVG/1.1/DTD/svg11.dtd">
<svg version="1.1" xmlns="http://www.w3.org/2000/svg" xmlns:xlink="http://www.w3.org/1999/xlink" x="0px" y="0px" viewBox="0 0 256 256" enable-background="new 0 0 256 256" xml:space="preserve">
<metadata> Svg Vector Icons : http://www.onlinewebfonts.com/icon </metadata>
<g><g><path fill="#fff" d="M128,191.4c-33.9,0-67.9,0-101.8,0c-5.9,0-10.3-1.5-13.3-5.9c-1.5-3-3-5.9-3-8.9c0,0,0,0,0-1.5c0-47.2,0-95.9,0-143.1c0-7.4,4.4-13.3,10.3-14.8c1.5,0,4.4-1.5,5.9-1.5c47.2,0,94.4,0,143.1,0c20.7,0,41.3,0,60.5,0c7.4,0,13.3,4.4,14.8,10.3c1.5,3,1.5,4.4,1.5,5.9c0,47.2,0,95.9,0,143.1c0,8.9-5.9,14.8-14.8,16.2h-1.5C195.9,191.4,161.9,191.4,128,191.4z M128,175.2c32.5,0,64.9,0,95.9,0c1.5,0,1.5,0,3,0c3,0,4.4-3,4.4-5.9c0-44.2,0-88.5,0-132.7l0,0c0-3-1.5-4.4-4.4-4.4h-1.5c-64.9,0-128.3,0-193.2,0h-1.5c-3,0-4.4,1.5-5.9,4.4V38c0,44.3,0,87,0,131.3v1.5c0,1.5,1.5,3,3,4.4c1.5,0,1.5,0,3,0C63.1,175.2,95.6,175.2,128,175.2z"/><path fill="#fff" d="M210.6,240.1c-54.6,0-109.2,0-163.7,0c0-4.4,0-10.3,0-14.8c14.8,0,31,0,45.7,0v-1.5c0-5.9,0-11.8,0-17.7c0-1.5,0-3,1.5-3c0-1.5,1.5-3,4.4-3c1.5,0,3,0,4.4,0c19.2,0,39.8,0,59,0c4.4,0,5.9,1.5,5.9,5.9c0,5.9,0,13.3,0,20.7c14.8,0,31,0,45.7,0C210.6,229.8,210.6,234.2,210.6,240.1z"/><path fill="#fff" d="M116.2,74.9c4.4,4.4,8.9,8.9,13.3,13.3c8.9-10.3,19.2-19.2,28-29.5c-3-4.4-5.9-7.4-8.9-10.3c10.3-3,22.1-4.4,32.5-7.4c-1.5,10.3-4.4,22.1-5.9,32.5c-3-3-7.4-7.4-10.3-10.3c-11.8,11.8-23.6,23.6-33.9,35.4c-5.9-4.4-10.3-8.9-14.8-13.3c-11.8,11.8-23.6,23.6-33.9,35.4c-2.9-1.5-4.4-2.9-5.9-5.9C89.6,101.5,102.9,88.2,116.2,74.9z"/><path fill="#fff" d="M161.9,160.5c0-25.1,0-48.7,0-73.8c4.4,0,8.9,0,14.8,0c0,25.1,0,48.7,0,73.8C172.3,160.5,166.4,160.5,161.9,160.5z"/><path fill="#fff" d="M136.9,102.9c4.4,0,8.9,0,14.8,0c0,19.2,0,38.3,0,57.5c-4.4,0-8.9,0-14.8,0C136.9,141.3,136.9,122.1,136.9,102.9z"/><path fill="#fff" d="M108.8,114.7c4.4,0,8.9,0,14.8,0c0,14.8,0,29.5,0,45.7c-4.4,0-8.8,0-14.8,0C108.8,145.7,108.8,129.5,108.8,114.7z"/><path fill="#fff" d="M100,129.5c0,10.3,0,20.6,0,31c-4.4,0-8.9,0-14.8,0c0-10.3,0-20.7,0-31C89.6,129.5,94.1,129.5,100,129.5z"/></g></g>
</svg>