<?xml version="1.0" encoding="utf-8"?>
<!-- Svg Vector Icons : http://www.onlinewebfonts.com/icon -->
<!DOCTYPE svg PUBLIC "-//W3C//DTD SVG 1.1//EN" "http://www.w3.org/Graphics/SVG/1.1/DTD/svg11.dtd">
<svg version="1.1" xmlns="http://www.w3.org/2000/svg" xmlns:xlink="http://www.w3.org/1999/xlink" x="0px" y="0px" viewBox="0 0 256 256" enable-background="new 0 0 256 256" xml:space="preserve">
<metadata> Svg Vector Icons : http://www.onlinewebfonts.com/icon </metadata>
<g><g><g><path fill="#fff" d="M102.9,14.7c-14.3,1.5-26.1,4.9-38,11C26.6,45.4,4.7,88,11.1,130.7c4.8,32,25.1,60.3,53.8,75c19.6,10.1,42.1,13.6,63.5,9.9c3.5-0.6,5.4-2,6.1-4.6c0.5-1.5,0.4-2-0.3-3.5c-0.5-1-1.6-2.2-2.4-2.7c-1.5-0.8-1.8-0.8-6.9-0.1c-8.6,1.2-13.2,1.3-19.9,0.8c-21.9-1.8-40.4-10-56-24.9c-36.9-35.4-36.9-94.3,0-129.7c31.4-30.1,79.1-33.6,114.5-8.4c5.1,3.6,13.7,11.7,17.7,16.7c14.2,17.6,21.6,41.1,19.9,62.6c-0.4,4.7-0.4,6.2,0.1,7.4c1.5,3.6,5.9,4.6,8.8,1.9c1.5-1.4,1.7-1.8,2-4.9c1-8.4,0.4-20.5-1.4-29.8c-7.3-37.6-35.9-68.3-72.9-78.3c-8.2-2.2-14.8-3.1-24.2-3.3C108.7,14.6,103.9,14.6,102.9,14.7z"/><path fill="#fff" d="M106.3,60.1v7.8l-3.2,0.8C90.6,71.7,82.8,81,82.8,92.9c0,7.1,2,11.8,7.3,16.6c3.9,3.6,8.1,6.1,17,9.9c8,3.5,11,5.2,14,8.1c3.2,3.1,4.3,5.8,4.5,10.4c0.2,3.3,0,4.1-1,6.3c-4.7,10.3-20.4,12.6-35.6,5.2c-2.3-1.1-4.2-2-4.2-1.9c-0.2,0.3-3.4,9.5-3.4,9.9c0,0.7,7.1,4.1,11,5.1c1.8,0.5,5.4,1.2,7.9,1.5l4.6,0.6v7.8v7.8h4.8h4.8V172v-8.1l1.3-0.2c11.5-2.5,19.6-9.4,22.5-19.4c1-3.4,1.1-10,0.2-13.6c-1.6-6.5-6.5-12.6-13.3-16.7c-2-1.2-6.7-3.6-10.4-5.2c-15-6.5-18.7-10.1-18.7-17.5c0-9.7,8.5-14.9,21.3-13.2c4.2,0.6,9,2,12.3,3.7c1.1,0.6,2.2,0.9,2.4,0.6c0.6-0.7,3.7-9.4,3.5-9.8c-0.4-0.6-6.9-3.2-10.2-3.9c-1.7-0.4-4.5-0.9-6.4-1.1l-3.3-0.3l-0.1-7.5l-0.1-7.5h-4.6h-4.6L106.3,60.1L106.3,60.1z"/><path fill="#fff" d="M170,140c-8.8,1.6-17.4,6.9-22.4,14c-5.4,7.6-7.6,15.5-6.7,24.4c0.8,8,3.8,14.6,9.4,20.5c7,7.5,15.6,11.2,25.7,11.2c7.5,0,13.9-1.9,19.8-6l2.9-2l19.5,19.4c12.9,12.9,19.8,19.5,20.7,19.7c4.6,1.2,8.6-3.5,6.6-7.7c-0.4-0.9-9.4-10.2-20-20.9l-19.3-19.3l1.3-2.4c1.9-3.5,3.1-7.5,3.7-12.2c2.2-17-9.2-33.6-26.1-38.2C181.6,139.7,173.4,139.4,170,140z M181.8,151.6c3.5,0.7,8.5,3.6,11.3,6.4c4.5,4.5,6.9,10.5,6.9,17.1c0,6.6-2.2,11.9-6.9,16.6c-9.6,9.7-24.2,9.8-34,0.2c-5-4.9-7.4-11.3-7-18.5c0.7-11.4,9.2-20.7,20.6-22.3C175.5,150.6,178.1,150.8,181.8,151.6z"/></g></g></g>
</svg>