<?xml version="1.0" encoding="utf-8"?>
<!-- Svg Vector Icons : http://www.onlinewebfonts.com/icon -->
<!DOCTYPE svg PUBLIC "-//W3C//DTD SVG 1.1//EN" "http://www.w3.org/Graphics/SVG/1.1/DTD/svg11.dtd">
<svg version="1.1" xmlns="http://www.w3.org/2000/svg" xmlns:xlink="http://www.w3.org/1999/xlink" x="0px" y="0px" viewBox="0 0 256 256" enable-background="new 0 0 256 256" xml:space="preserve">
<metadata> Svg Vector Icons : http://www.onlinewebfonts.com/icon </metadata>
<g><g><g><path fill="#fff" d="M160.2,14.4c-0.5,0.1-7.2,6.4-14.7,14c-13.8,13.9-13.8,13.9-13.8,15.9c0,1.6,0.3,2.3,1.3,3.3c1.1,1.1,1.8,1.3,3.6,1.3h2.2l9-9l9-8.9l-0.3,11.4c-0.4,17.9-2,28.5-6.1,40.9c-8.8,26.5-27.9,47.6-55.5,61.4c-17.6,8.8-38.9,14.7-59.3,16.7c-7.2,0.7-7.5,0.7-8.9,2.2c-1.7,1.8-1.6,4.9,0.2,6.7c1.3,1.2,1.7,1.3,4.4,1.3c4,0,15.8-1.5,22.8-3c34.9-7.1,62.2-21.1,81.6-41.5c7.8-8.3,13.4-16.4,18.6-27.3c8.4-17.4,12-35.6,12-59.9v-8.8l9,8.9c8.8,8.8,9,8.9,10.9,8.9c2.4,0,4-0.9,4.7-2.8c1.3-3,0.9-3.5-13.3-17.8c-11.7-11.7-15-14.5-16.3-14.3C161.3,14.2,160.7,14.3,160.2,14.4z"/><path fill="#fff" d="M219.2,24.4c-0.5,0.2-1.3,1.1-1.7,2c-0.7,1.3-0.8,9.8-0.7,107.1l0.1,105.7l1.3,1.3l1.3,1.3l11.8,0.1l11.8,0.1l1.5-1.2l1.4-1.3V132.8V26.1l-1.2-1.1l-1.3-1.2l-11.7,0C224.8,23.9,219.8,24.1,219.2,24.4z M236.6,132.7l-0.1,99.2h-4.9h-4.9l-0.1-99.2l-0.1-99.1h5.1h5.1L236.6,132.7z"/><path fill="#fff" d="M50.2,25c-9.6,1.8-18.6,6.6-25.8,13.9C5,58.6,5.2,88.4,25,107.5c6.6,6.4,12.6,9.9,20.7,12.3c17.2,5,35.2-0.2,48.1-13.9c5.9-6.2,9.9-13.3,12-21.6c1.6-6,1.7-16.4,0.2-22C101.2,44,87.7,30.3,69.9,25.6C65.2,24.4,55.2,24.1,50.2,25z M68,35.2c17.6,4,29.3,19,29.3,37.4c0,6-0.7,10.3-2.7,15.4c-4,10.5-13.6,19-25,22.3c-3.1,0.9-4.7,1.1-10.9,1.1c-6.1,0-7.8-0.1-10.9-1.1c-11.4-3.3-21-11.8-25-22.3c-2-5.2-2.8-9.4-2.7-15.4c0-13.6,6.1-25.2,17.1-32.3c4.9-3.2,10.2-5,17.1-6C56.7,34,64.8,34.5,68,35.2z"/><path fill="#fff" d="M54.9,38.2c-1.1,1.1-1.3,1.8-1.3,3.4v2.1l-3,1.4c-6.4,3-10.6,8.9-10.6,14.9c0,7.7,5.4,13,17.2,16.8c8.1,2.6,10,4.1,10,7.6c0,4.2-3.1,6.6-8.6,6.5c-2.6,0-3.8-0.2-6.4-1.4c-1.7-0.8-4.1-2.2-5.3-3.1c-3.6-2.7-7.3-2-8.6,1.8c-1,3.2,1.3,6,7.7,9.2c1.5,0.8,3.9,1.8,5.1,2.2c2.1,0.7,2.3,0.9,2.5,2.4c0.3,3.6,2.1,5.5,5.3,5.5c1,0,1.9-0.5,3-1.6c1.3-1.3,1.6-1.9,1.6-3.7c0-2,0.1-2.1,1.3-2.4c2.3-0.5,7-4,8.9-6.5c2.4-3.1,3.3-5.9,3.3-9.3c0-7.4-5.6-12.9-17.3-16.7c-7.8-2.6-9.8-4-9.8-7.4c0-3.9,2.7-6.2,7.7-6.6c3.5-0.3,6.6,0.9,8.2,3.2c2.1,2.8,4.6,3.4,7.3,1.9c2.1-1.3,2.9-3.9,1.8-6.2c-1.4-2.9-6.1-6.4-10.6-7.9c-0.6-0.2-0.8-0.7-0.8-1.9c0-2-1.1-4.2-2.3-4.9c-0.5-0.2-1.8-0.5-2.8-0.5C56.7,36.8,56,37.1,54.9,38.2z"/><path fill="#fff" d="M169.3,113.8c-2.5,1.8-2.4-0.8-2.4,63.6c0,50.6,0.1,60,0.7,61.4c1.2,2.8,2.2,3,14.4,3c7.3,0,11.3-0.2,12.1-0.6c2.7-1.2,2.6,2.9,2.6-63.8c0-41.3-0.1-61.5-0.5-62.1c-1.2-2.2-1.8-2.3-14.2-2.3C172.1,113.1,170.3,113.2,169.3,113.8z M187,177.5v54.6h-4.9h-4.9v-54.6v-54.6h4.9h4.9V177.5L187,177.5z"/><path fill="#fff" d="M120.7,163c-3.2,1.4-3-1.1-3,39.2v36.4l1.6,1.6l1.6,1.6H132c6.2,0,11.7-0.2,12.4-0.5c0.7-0.2,1.6-1.1,2.1-2c0.9-1.5,0.9-2.4,0.9-37c0-39.4,0.1-38.1-3-39.4C142.2,162.1,122.8,162.1,120.7,163z M137.2,202.3v29.8h-4.9h-4.9v-29.8v-29.8h4.9h4.9V202.3z"/><path fill="#fff" d="M70.9,192.8c-3,1.3-3,1.2-2.8,24.9l0.1,21.4l1.3,1.3l1.3,1.3l11.9,0.1l11.9,0.1l1.6-1.6l1.6-1.6v-21.3c0-16.1-0.1-21.6-0.6-22.5c-1.2-2.5-2.8-2.8-14.3-2.8C75,192.2,72,192.3,70.9,192.8z M87.9,217.1l-0.1,14.8h-4.9h-4.9l-0.1-14.8l-0.1-14.7h5.1h5.1L87.9,217.1z"/><path fill="#fff" d="M20.6,203.1c-2.2,1.6-2.4,2.8-2.4,19c0,16.7,0.1,17.7,2.7,19c1.2,0.6,3.3,0.7,12.3,0.7c7.3,0,11.3-0.2,12.1-0.6c2.6-1.1,2.6-1.3,2.6-19.1c0-17.2,0-17.7-2-19.1C44.4,202,22.2,202,20.6,203.1z M38.2,222.1v10h-4.9h-4.9v-10v-10h4.9h4.9V222.1z"/></g></g></g>
</svg>